<?xml version="1.0" encoding="UTF-8" standalone="no"?>
<svg
   xmlns:dc="http://purl.org/dc/elements/1.1/"
   xmlns:cc="http://creativecommons.org/ns#"
   xmlns:rdf="http://www.w3.org/1999/02/22-rdf-syntax-ns#"
   xmlns:svg="http://www.w3.org/2000/svg"
   xmlns="http://www.w3.org/2000/svg"
   xmlns:sodipodi="http://sodipodi.sourceforge.net/DTD/sodipodi-0.dtd"
   xmlns:inkscape="http://www.inkscape.org/namespaces/inkscape"
   id="Icons"
   height="512"
   viewBox="0 0 74 74"
   width="512"
   version="1.1"
   sodipodi:docname="tag-hover.svg"
   inkscape:version="1.0.2 (e86c870879, 2021-01-15)">
  <metadata
     id="metadata17">
    <rdf:RDF>
      <cc:Work
         rdf:about="">
        <dc:format>image/svg+xml</dc:format>
        <dc:type
           rdf:resource="http://purl.org/dc/dcmitype/StillImage" />
        <dc:title></dc:title>
      </cc:Work>
    </rdf:RDF>
  </metadata>
  <defs
     id="defs15" />
  <sodipodi:namedview
     pagecolor="#ffffff"
     bordercolor="#666666"
     borderopacity="1"
     objecttolerance="10"
     gridtolerance="10"
     guidetolerance="10"
     inkscape:pageopacity="0"
     inkscape:pageshadow="2"
     inkscape:window-width="1366"
     inkscape:window-height="722"
     id="namedview13"
     showgrid="false"
     inkscape:zoom="0.40396237"
     inkscape:cx="-29.975434"
     inkscape:cy="389.82895"
     inkscape:window-x="0"
     inkscape:window-y="20"
     inkscape:window-maximized="1"
     inkscape:current-layer="Icons" />
  <path
     d="m42.994 66.014a1 1 0 0 1 -.707-.293l-30.208-30.208a1 1 0 0 1 -.281-.863l3.486-22.075a1 1 0 0 1 .832-.832l22.074-3.486a1 1 0 0 1 .863.281l30.208 30.208a1 1 0 0 1 0 1.414l-25.561 25.561a1 1 0 0 1 -.706.293zm-29.141-31.556 29.141 29.142 24.146-24.147-29.14-29.14-20.854 3.292z"
     id="path2"
     style="fill:#f6f6f6;fill-opacity:1" />
  <path
     d="m25.566 27.131a5.105 5.105 0 1 1 3.612-1.494 5.092 5.092 0 0 1 -3.612 1.494zm0-8.213a3.108 3.108 0 1 0 2.2.911 3.088 3.088 0 0 0 -2.2-.912z"
     id="path4"
     style="fill:#f6f6f6;fill-opacity:1" />
  <path
     d="m5.807 35.423-1.267-2.718a1 1 0 0 1 .031-.907l10.829-19.551 1.75.969-10.583 19.105 1.053 2.256z"
     id="path6"
     style="fill:#f6f6f6;fill-opacity:1" />
  <path
     d="m23.5 72a1 1 0 0 1 -.906-.577l-14.978-32.123 1.813-.846 14.555 31.217 16.47-7.68.846 1.809-17.376 8.1a1 1 0 0 1 -.424.1z"
     id="path8"
     style="fill:#f6f6f6;fill-opacity:1" />
  <path
     d="m23.124 23.9a8.182 8.182 0 0 1 -1.832-.225l.447-1.949c.824.188 2.325.387 3.12-.407.779-.779.776-2.409-.01-4.471a21.845 21.845 0 0 0 -5-7.258c-4.932-4.932-10.14-6.6-11.729-5.011s.079 6.8 5.011 11.729q.5.494 1 .952l-1.342 1.483q-.541-.49-1.072-1.021c-5.579-5.577-7.733-11.836-5.012-14.557s8.98-.567 14.558 5.011a23.846 23.846 0 0 1 5.455 7.96c1.1 2.873.938 5.216-.444 6.6a4.263 4.263 0 0 1 -3.15 1.164z"
     id="path10"
     style="fill:#f6f6f6;fill-opacity:1" />
</svg>
